<mxfile host="app.diagrams.net" modified="2024-01-05T13:21:07.746Z" agent="Mozilla/5.0 (X11; Linux x86_64; rv:121.0) Gecko/20100101 Firefox/121.0" etag="LdlRGK7N3PyKr6tIH0i8" version="22.1.16" type="github">
  <diagram name="Page-1" id="GqGvQxFNgPvxc8cYFPhT">
    <mxGraphModel dx="1431" dy="930" grid="1" gridSize="10" guides="1" tooltips="1" connect="1" arrows="1" fold="1" page="1" pageScale="1" pageWidth="850" pageHeight="1100" math="0" shadow="0">
      <root>
        <mxCell id="0" />
        <mxCell id="1" parent="0" />
        <mxCell id="EaYA7n-h-W360lJu-BY4-1" value="M.O.T.U.S." style="ellipse;whiteSpace=wrap;html=1;aspect=fixed;fillColor=#dae8fc;movable=1;resizable=1;rotatable=1;deletable=1;editable=1;locked=0;connectable=1;strokeColor=#6c8ebf;" parent="1" vertex="1">
          <mxGeometry x="310" y="400" width="230" height="230" as="geometry" />
        </mxCell>
        <mxCell id="TUEdhcyqdF4xune_vlGw-5" value="Connects" style="edgeStyle=orthogonalEdgeStyle;rounded=0;orthogonalLoop=1;jettySize=auto;html=1;exitX=0.5;exitY=1;exitDx=0;exitDy=0;" parent="1" source="TUEdhcyqdF4xune_vlGw-1" target="EaYA7n-h-W360lJu-BY4-1" edge="1">
          <mxGeometry relative="1" as="geometry" />
        </mxCell>
        <mxCell id="TUEdhcyqdF4xune_vlGw-7" style="edgeStyle=orthogonalEdgeStyle;rounded=0;orthogonalLoop=1;jettySize=auto;html=1;exitX=1;exitY=0.5;exitDx=0;exitDy=0;entryX=1;entryY=0.5;entryDx=0;entryDy=0;" parent="1" source="TUEdhcyqdF4xune_vlGw-1" target="TUEdhcyqdF4xune_vlGw-2" edge="1">
          <mxGeometry relative="1" as="geometry">
            <Array as="points">
              <mxPoint x="690" y="220" />
              <mxPoint x="690" y="840" />
            </Array>
          </mxGeometry>
        </mxCell>
        <mxCell id="TUEdhcyqdF4xune_vlGw-8" value="Provides ride" style="edgeLabel;html=1;align=center;verticalAlign=middle;resizable=0;points=[];" parent="TUEdhcyqdF4xune_vlGw-7" vertex="1" connectable="0">
          <mxGeometry x="-0.0829" y="4" relative="1" as="geometry">
            <mxPoint as="offset" />
          </mxGeometry>
        </mxCell>
        <mxCell id="TUEdhcyqdF4xune_vlGw-1" value="Driver" style="rounded=0;whiteSpace=wrap;html=1;fillColor=#d5e8d4;strokeColor=#82b366;" parent="1" vertex="1">
          <mxGeometry x="370" y="190" width="120" height="60" as="geometry" />
        </mxCell>
        <mxCell id="TUEdhcyqdF4xune_vlGw-6" value="Connects" style="edgeStyle=orthogonalEdgeStyle;rounded=0;orthogonalLoop=1;jettySize=auto;html=1;exitX=0.5;exitY=0;exitDx=0;exitDy=0;" parent="1" source="TUEdhcyqdF4xune_vlGw-2" target="EaYA7n-h-W360lJu-BY4-1" edge="1">
          <mxGeometry relative="1" as="geometry" />
        </mxCell>
        <mxCell id="TUEdhcyqdF4xune_vlGw-2" value="Rider" style="rounded=0;whiteSpace=wrap;html=1;fillColor=#d5e8d4;strokeColor=#82b366;" parent="1" vertex="1">
          <mxGeometry x="365" y="810" width="120" height="60" as="geometry" />
        </mxCell>
        <mxCell id="TUEdhcyqdF4xune_vlGw-10" style="edgeStyle=orthogonalEdgeStyle;rounded=0;orthogonalLoop=1;jettySize=auto;html=1;exitX=1;exitY=0.5;exitDx=0;exitDy=0;entryX=0;entryY=0.5;entryDx=0;entryDy=0;" parent="1" source="TUEdhcyqdF4xune_vlGw-9" target="EaYA7n-h-W360lJu-BY4-1" edge="1">
          <mxGeometry relative="1" as="geometry" />
        </mxCell>
        <mxCell id="TUEdhcyqdF4xune_vlGw-11" value="Transactions" style="edgeLabel;html=1;align=center;verticalAlign=middle;resizable=0;points=[];" parent="TUEdhcyqdF4xune_vlGw-10" vertex="1" connectable="0">
          <mxGeometry x="0.0345" y="-5" relative="1" as="geometry">
            <mxPoint x="-5" y="-5" as="offset" />
          </mxGeometry>
        </mxCell>
        <mxCell id="TUEdhcyqdF4xune_vlGw-9" value="Database" style="rounded=0;whiteSpace=wrap;html=1;fillColor=#fff2cc;strokeColor=#d6b656;" parent="1" vertex="1">
          <mxGeometry x="50" y="485" width="120" height="60" as="geometry" />
        </mxCell>
        <mxCell id="TUEdhcyqdF4xune_vlGw-13" style="edgeStyle=orthogonalEdgeStyle;rounded=0;orthogonalLoop=1;jettySize=auto;html=1;exitX=1;exitY=1;exitDx=0;exitDy=0;entryX=0;entryY=0;entryDx=0;entryDy=0;" parent="1" source="TUEdhcyqdF4xune_vlGw-12" target="EaYA7n-h-W360lJu-BY4-1" edge="1">
          <mxGeometry relative="1" as="geometry" />
        </mxCell>
        <mxCell id="TUEdhcyqdF4xune_vlGw-12" value="Logger" style="rounded=0;whiteSpace=wrap;html=1;fillColor=#fff2cc;strokeColor=#d6b656;" parent="1" vertex="1">
          <mxGeometry x="100" y="320" width="120" height="60" as="geometry" />
        </mxCell>
        <mxCell id="TUEdhcyqdF4xune_vlGw-16" style="edgeStyle=orthogonalEdgeStyle;rounded=0;orthogonalLoop=1;jettySize=auto;html=1;exitX=1;exitY=0.25;exitDx=0;exitDy=0;entryX=0;entryY=1;entryDx=0;entryDy=0;" parent="1" source="TUEdhcyqdF4xune_vlGw-15" target="EaYA7n-h-W360lJu-BY4-1" edge="1">
          <mxGeometry relative="1" as="geometry" />
        </mxCell>
        <mxCell id="TUEdhcyqdF4xune_vlGw-17" style="edgeStyle=orthogonalEdgeStyle;rounded=0;orthogonalLoop=1;jettySize=auto;html=1;exitX=1;exitY=1;exitDx=0;exitDy=0;entryX=0;entryY=0.25;entryDx=0;entryDy=0;" parent="1" source="TUEdhcyqdF4xune_vlGw-15" target="TUEdhcyqdF4xune_vlGw-2" edge="1">
          <mxGeometry relative="1" as="geometry" />
        </mxCell>
        <mxCell id="TUEdhcyqdF4xune_vlGw-19" value="Interact" style="edgeLabel;html=1;align=center;verticalAlign=middle;resizable=0;points=[];" parent="TUEdhcyqdF4xune_vlGw-17" vertex="1" connectable="0">
          <mxGeometry x="0.0194" y="-2" relative="1" as="geometry">
            <mxPoint as="offset" />
          </mxGeometry>
        </mxCell>
        <mxCell id="TUEdhcyqdF4xune_vlGw-18" style="edgeStyle=orthogonalEdgeStyle;rounded=0;orthogonalLoop=1;jettySize=auto;html=1;exitX=1;exitY=0;exitDx=0;exitDy=0;" parent="1" source="TUEdhcyqdF4xune_vlGw-15" target="TUEdhcyqdF4xune_vlGw-1" edge="1">
          <mxGeometry relative="1" as="geometry">
            <Array as="points">
              <mxPoint x="30" y="640" />
              <mxPoint x="30" y="260" />
              <mxPoint x="430" y="260" />
            </Array>
          </mxGeometry>
        </mxCell>
        <mxCell id="TUEdhcyqdF4xune_vlGw-20" value="Payout" style="edgeLabel;html=1;align=center;verticalAlign=middle;resizable=0;points=[];" parent="TUEdhcyqdF4xune_vlGw-18" vertex="1" connectable="0">
          <mxGeometry x="0.2872" y="-1" relative="1" as="geometry">
            <mxPoint as="offset" />
          </mxGeometry>
        </mxCell>
        <mxCell id="TUEdhcyqdF4xune_vlGw-15" value="&lt;div&gt;Payment System&lt;/div&gt;" style="rounded=0;whiteSpace=wrap;html=1;fillColor=#fff2cc;strokeColor=#d6b656;" parent="1" vertex="1">
          <mxGeometry x="60" y="640" width="120" height="60" as="geometry" />
        </mxCell>
      </root>
    </mxGraphModel>
  </diagram>
</mxfile>
